<?xml version="1.0" encoding="utf-8"?>
<!-- Generator: Adobe Illustrator 26.0.1, SVG Export Plug-In . SVG Version: 6.00 Build 0)  -->
<svg version="1.1" id="레이어_1" focusable="false"
	 xmlns="http://www.w3.org/2000/svg" xmlns:xlink="http://www.w3.org/1999/xlink" x="0px" y="0px" viewBox="0 0 80 80"
	 style="enable-background:new 0 0 80 80;" xml:space="preserve">
<path d="M38.3,50.5l-2.5-0.7c-0.3-0.1-0.4-0.3-0.3-0.6l5.6-19.3c0.1-0.3,0.3-0.4,0.6-0.3l2.5,0.7c0.3,0.1,0.4,0.3,0.3,0.6l-5.6,19.3
	C38.8,50.4,38.6,50.6,38.3,50.5z M33.6,45.9l1.8-1.9c0.2-0.2,0.2-0.5,0-0.7L31.7,40l3.7-3.3c0.2-0.2,0.2-0.5,0-0.7l-1.8-1.9
	c-0.2-0.2-0.5-0.2-0.7,0L27,39.7c-0.2,0.2-0.2,0.5,0,0.7l5.9,5.5C33.1,46.1,33.5,46.1,33.6,45.9L33.6,45.9z M47.1,45.9l5.9-5.5
	c0.2-0.2,0.2-0.5,0-0.7l-5.9-5.5c-0.2-0.2-0.5-0.2-0.7,0L44.6,36c-0.2,0.2-0.2,0.5,0,0.7l3.7,3.3l-3.7,3.3c-0.2,0.2-0.2,0.5,0,0.7
	l1.8,1.9C46.5,46.1,46.9,46.1,47.1,45.9L47.1,45.9z"/>
</svg>
