<?xml version="1.0" encoding="utf-8"?>
<!-- Generator: Adobe Illustrator 26.0.1, SVG Export Plug-In . SVG Version: 6.00 Build 0)  -->
<svg version="1.1" id="레이어_1" focusable="false"
	 xmlns="http://www.w3.org/2000/svg" xmlns:xlink="http://www.w3.org/1999/xlink" x="0px" y="0px" viewBox="0 0 80 80"
	 style="enable-background:new 0 0 80 80;" xml:space="preserve">
<path d="M44.5,43L40,47.5L35.5,43c-3.4,0.1-6,2.9-6,6.3v0.5c0,1.2,1,2.2,2.2,2.2h16.5c1.2,0,2.2-1,2.2-2.2v-0.5
	C50.5,45.9,47.8,43.2,44.5,43L44.5,43z M30.1,31.7l0.3,0.1v2.7c-0.3,0.2-0.6,0.5-0.6,1c0,0.4,0.2,0.7,0.5,0.9l-0.7,2.9
	C29.6,39.7,29.8,40,30,40h2c0.3,0,0.4-0.3,0.4-0.7l-0.7-2.9c0.3-0.2,0.5-0.5,0.5-0.9c0-0.4-0.2-0.8-0.6-1v-2.5l3.1,0.7
	c-0.4,0.8-0.7,1.7-0.7,2.7c0,3.3,2.7,6,6,6s6-2.7,6-6c0-1-0.2-1.9-0.7-2.7l4.5-1.1c0.9-0.2,0.9-1.3,0-1.5l-8.9-2.2
	c-0.6-0.1-1.3-0.1-1.9,0l-8.9,2.2C29.3,30.5,29.3,31.5,30.1,31.7z"/>
</svg>
