<?xml version="1.0" encoding="utf-8"?>
<!-- Generator: Adobe Illustrator 15.1.0, SVG Export Plug-In . SVG Version: 6.00 Build 0)  -->
<!DOCTYPE svg PUBLIC "-//W3C//DTD SVG 1.1//EN" "http://www.w3.org/Graphics/SVG/1.1/DTD/svg11.dtd">
<svg version="1.1" id="Layer_1" xmlns="http://www.w3.org/2000/svg" xmlns:xlink="http://www.w3.org/1999/xlink" x="0px" y="0px"
	 width="40px" height="40px" viewBox="0 0 40 40" enable-background="new 0 0 40 40" xml:space="preserve">
<path fill="#FFFFFF" d="M27.951,18.119c-0.118-0.362-0.431-0.626-0.808-0.681l-4.315-0.626L20.896,12.9
	c-0.336-0.683-1.456-0.683-1.793,0l-1.932,3.912l-4.315,0.626c-0.377,0.055-0.69,0.319-0.808,0.681
	c-0.118,0.362-0.02,0.76,0.253,1.025l3.123,3.043l-0.737,4.3c-0.064,0.375,0.09,0.754,0.398,0.978
	c0.174,0.127,0.381,0.191,0.588,0.191c0.159,0,0.319-0.038,0.465-0.115L20,25.511l3.861,2.03c0.337,0.178,0.746,0.149,1.054-0.076
	c0.308-0.224,0.462-0.603,0.397-0.978l-0.738-4.3l3.124-3.043C27.971,18.879,28.068,18.481,27.951,18.119z"/>
</svg>
